# xmcd
#
# Track frame offsets:
#	150
#	14066
#	29004
#	44465
#	57377
#	78479
#	92994
#	107396
#	113335
#	132957
#	147344
#	168132
#	185303
#
# Disc length: 2684 seconds
#
# Revision: 1
# Processed by: cddbd v1.5.2PL0 Copyright (c) Steve Scherf et al.
# Submitted via: audiograbber 1.83.01
#
DISCID=ab0a7a0d
DTITLE=Blackberry Smoke - Holding All the Roses
DYEAR=2015
DGENRE=Country
TTITLE0=Let Me Help You (Find the Door)
TTITLE1=Holding All the Roses
TTITLE2=Living in the Song
TTITLE3=Rock and Roll Again
TTITLE4=Woman in the Moon
TTITLE5=Too High
TTITLE6=Wish in One Hand
TTITLE7=Randolph County Farewell
TTITLE8=Payback's a Bitch
TTITLE9=Lay It All On Me
TTITLE10=No Way Back to Eden
TTITLE11=Fire in the Hole
TTITLE12=Six Ways to Sunday
EXTD=
EXTT0=
EXTT1=
EXTT2=
EXTT3=
EXTT4=
EXTT5=
EXTT6=
EXTT7=
EXTT8=
EXTT9=
EXTT10=
EXTT11=
EXTT12=
PLAYORDER=
